:SAMPLES-PER-SECOND 30
:FULLY-SPECIFIED
:DEGREES
470
root  33.3367 36.7364 14.2948 -127.147 81.7557 -121.589
RightUpLeg  -19.8316 -6.07266 1.37839
RightLeg  32.6534 3.00983 1.81773
RightFoot  -5.04728 -0.104672 1.26814
RightToes  -8.73116e-010 0 -3.6325e-017
Spine  10.4573 -3.98524 15.1614
Spine1  6.33288 -2.35653 2.21839
HEad  -11.0995 15.5453 -7.90414
LeftShoulder1  -0.381253 4.48057 -32.8678
LeftArm  12.7632 2.48389 -45.4682
LeftForeArm  16.5491 -20.8974 -4.76796
LeftHand  -0.0806564 0.957528 1.99651
RightShoulder  -0.609522 -5.31249 26.8957
RightArm  1.35018 -9.32979 37.4099
RightForeArm  1.91253 30.1406 6.47098
RightHand  -0.561305 5.44749 -6.31527
LeftUpLeg  -0.97672 -5.26538 7.94148
LeftLeg  64.3624 -5.46712 -11.6559
LeftFoot  10.4351 1.67497 -8.93822
LeftToes  -5.63919e-011 3.32596e-011 1.92487e-011
471
root  34.3777 37.1717 14.6101 -138.697 81.6973 -132.983
RightUpLeg  -16.7565 -7.63224 0.626016
RightLeg  31.1052 3.21213 1.83467
RightFoot  -6.21831 -0.0734968 0.721235
RightToes  -8.73116e-010 0 -3.6325e-017
Spine  10.7544 -3.45522 15.0022
Spine1  6.54198 -1.7458 1.62049
HEad  -13.2662 13.927 -6.97781
LeftShoulder1  -0.429155 4.57783 -33.7953
LeftArm  13.3405 -0.559468 -44.7167
LeftForeArm  15.7518 -20.8385 -4.84347
LeftHand  -0.0383427 0.902411 0.888802
RightShoulder  -0.421719 -4.8277 25.0037
RightArm  0.214676 -6.69135 38.1246
RightForeArm  2.05046 29.5147 6.30952
RightHand  -0.5112 4.76786 -6.13049
LeftUpLeg  -6.46706 -3.51069 7.23899
LeftLeg  68.3133 -2.44709 -6.11912
LeftFoot  7.24118 0.44525 -3.04121
LeftToes  -5.63919e-011 3.32596e-011 1.92487e-011
472
root  35.3879 37.6004 14.8403 -147.411 81.7462 -141.802
RightUpLeg  -13.7697 -8.73887 -0.218217
RightLeg  28.8967 3.57072 1.88011
RightFoot  -7.10149 -0.0664598 0.602594
RightToes  -8.73116e-010 0 -3.6325e-017
Spine  11.0086 -3.14058 15.6336
Spine1  6.11925 -0.964823 -0.341095
HEad  -14.6123 11.969 -5.17782
LeftShoulder1  -0.326279 4.33647 -33.0791
LeftArm  12.1684 -2.68609 -44.3835
LeftForeArm  14.8281 -20.7408 -4.8885
LeftHand  -0.0509244 1.50321 1.27554
RightShoulder  -0.320051 -4.53423 23.8426
RightArm  1.32658 -2.65555 38.1411
RightForeArm  0.0931382 27.7183 5.98006
RightHand  -0.5406 5.50114 -6.06658
LeftUpLeg  -11.3733 -1.62466 5.87495
LeftLeg  69.0222 -1.097 -2.43706
LeftFoot  5.77515 0.100524 -0.920397
LeftToes  -5.63919e-011 3.32596e-011 1.92487e-011
473
root  36.3971 37.9835 15.0476 -153.364 81.5299 -148.026
RightUpLeg  -10.8142 -9.92397 -0.730529
RightLeg  26.3097 4.09087 1.9788
RightFoot  -7.86534 -0.0627185 0.549768
RightToes  -8.73116e-010 0 -3.6325e-017
Spine  10.6248 -2.76531 16.0963
Spine1  6.03246 -0.413861 -1.6524
HEad  -15.2192 9.62377 -3.22728
LeftShoulder1  -0.229898 4.09739 -32.4434
LeftArm  10.2175 -5.66694 -43.5662
LeftForeArm  15.1188 -19.9005 -5.20304
LeftHand  -0.0909102 0.831525 2.23471
RightShoulder  -0.188633 -4.14125 22.2108
RightArm  0.451047 1.48214 38.3188
RightForeArm  -0.488476 26.2465 5.66407
RightHand  -0.579713 6.23147 -6.1114
LeftUpLeg  -15.6381 0.577107 4.75907
LeftLeg  66.7657 -1.33114 -2.65
LeftFoot  4.90079 -0.0534744 0.151429
LeftToes  -5.63919e-011 3.32596e-011 1.92487e-011
474
root  37.4358 38.3346 15.2367 -159.671 81.1453 -154.247
RightUpLeg  -7.20515 -11.2629 -1.58769
RightLeg  23.3308 4.71674 2.33162
RightFoot  -8.61422 -0.0712142 0.691382
RightToes  -8.73116e-010 0 -3.6325e-017
Spine  10.5684 -2.46703 16.1601
Spine1  5.56106 0.0313294 -3.0237
HEad  -16.2071 8.52118 -1.51281
LeftShoulder1  -0.12001 3.82875 -31.0191
LeftArm  7.76741 -8.73247 -42.8723
LeftForeArm  15.0873 -19.2641 -5.39851
LeftHand  -0.116992 1.23725 3.11476
RightShoulder  -0.189451 -4.15521 21.2637
RightArm  -0.817238 5.64217 37.6387
RightForeArm  -1.22645 25.8214 5.60575
RightHand  -0.613383 6.05455 -6.55071
LeftUpLeg  -18.3004 2.57749 3.51933
LeftLeg  61.5369 -2.98327 -5.32894
LeftFoot  2.24479 0.0324016 -0.38718
LeftToes  -5.63919e-011 3.32596e-011 1.92487e-011
475
root  38.4818 38.5659 15.4009 -164.354 80.365 -158.77
RightUpLeg  -3.71564 -11.6295 -2.26236
RightLeg  20.7646 4.20974 2.52886
RightFoot  -9.56963 -0.0780335 0.80133
RightToes  -8.73116e-010 0 -3.6325e-017
Spine  10.3999 -2.40455 15.0929
Spine1  5.12129 -0.251881 -2.69498
HEad  -17.4228 8.90784 -0.0610638
LeftShoulder1  -0.155979 3.92726 -30.5092
LeftArm  5.41838 -12.1982 -40.9843
LeftForeArm  14.3434 -19.3196 -5.24776
LeftHand  -0.0864243 2.018 2.66033
RightShoulder  -0.0332747 -3.61303 19.3709
RightArm  -1.89908 10.2569 37.7321
RightForeArm  -2.84358 24.8938 5.47681
RightHand  -0.768493 5.21015 -8.68673
LeftUpLeg  -19.9117 4.12481 2.41737
LeftLeg  54.0279 -5.07232 -7.03145
LeftFoot  0.484894 0.0527562 -0.528274
LeftToes  -5.63919e-011 3.32596e-011 1.92487e-011
476
root  39.5112 38.7255 15.5172 -167.039 79.7673 -161.645
RightUpLeg  -0.820372 -11.1976 -2.58774
RightLeg  18.4136 3.13431 2.52297
RightFoot  -10.2816 -0.076731 0.762399
RightToes  -8.73116e-010 0 -3.6325e-017
Spine  9.94691 -2.19031 15.3085
Spine1  4.32391 0.0373221 -4.14607
HEad  -18.3603 8.76196 1.80852
LeftShoulder1  -0.00594497 3.52188 -28.8497
LeftArm  2.70492 -15.8564 -39.4245
LeftForeArm  13.6954 -19.1859 -5.16943
LeftHand  -0.0940063 1.78787 2.77252
RightShoulder  -0.00296035 -3.48334 17.9245
RightArm  -3.88429 14.5791 37.4361
RightForeArm  -2.64427 24.5587 5.39072
RightHand  -0.717412 5.37213 -8.01384
LeftUpLeg  -20.6958 6.12422 1.39676
LeftLeg  44.0553 -6.05419 -5.91977
LeftFoot  -0.210339 0.0498956 -0.495401
LeftToes  -5.63919e-011 3.32596e-011 1.92487e-011
477
root  40.5279 38.8229 15.6072 -167.573 79.2534 -162.126
RightUpLeg  2.30231 -10.6013 -2.46386
RightLeg  15.8235 2.00238 2.46991
RightFoot  -10.9076 -0.0768297 0.773614
RightToes  -8.73116e-010 0 -3.6325e-017
Spine  9.40203 -2.10869 14.7134
Spine1  4.15864 -0.113925 -4.38213
HEad  -19.8171 9.4659 3.9754
LeftShoulder1  0.047805 3.36046 -27.1981
LeftArm  -0.964747 -19.0501 -37.9526
LeftForeArm  13.0002 -20.0419 -4.65675
LeftHand  -0.0925484 2.00783 2.83574
RightShoulder  0.128177 -2.93355 16.279
RightArm  -5.36609 19.3118 37.1681
RightForeArm  -4.5527 24.9425 5.57348
RightHand  -0.892932 6.85765 -8.7865
LeftUpLeg  -20.048 8.23267 0.836929
LeftLeg  32.1202 -6.02233 -3.68492
LeftFoot  0.593087 0.207987 -2.01291
LeftToes  -5.63919e-011 3.32596e-011 1.92487e-011
478
root  41.5628 38.885 15.6604 -167.469 78.4905 -161.579
RightUpLeg  6.01321 -9.84747 -1.97802
RightLeg  12.833 0.719447 2.22841
RightFoot  -11.3689 -0.0766868 1.06764
RightToes  -8.73116e-010 0 -3.6325e-017
Spine  9.11514 -1.68692 14.517
Spine1  4.49223 0.236685 -4.5659
HEad  -21.155 9.18885 6.04628
LeftShoulder1  0.123874 3.12897 -26.7926
LeftArm  -2.96988 -23.6139 -35.988
LeftForeArm  11.5977 -21.5708 -4.45738
LeftHand  -0.126722 0.965462 3.25314
RightShoulder  -0.00334222 -3.4928 14.7545
RightArm  -8.39993 23.0531 36.3482
RightForeArm  -3.82043 27.9119 6.23148
RightHand  -0.802014 5.85897 -8.58343
LeftUpLeg  -18.226 10.0045 0.647406
LeftLeg  20.3287 -5.98937 -2.17196
LeftFoot  1.5507 0.315653 -2.8875
LeftToes  -5.63919e-011 3.32596e-011 1.92487e-011
479
root  42.6494 38.8401 15.6537 -168.096 77.4612 -161.539
RightUpLeg  9.73794 -9.58611 -1.55199
RightLeg  10.6264 -0.469917 1.96038
RightFoot  -12.3103 -0.0695888 1.58263
RightToes  -8.73116e-010 0 -3.6325e-017
Spine  8.66736 -1.7359 13.8095
Spine1  4.84894 0.0414312 -4.37132
HEad  -22.5183 10.6025 8.54736
LeftShoulder1  0.0996476 3.19434 -26.2842
LeftArm  -8.29106 -26.3802 -34.0392
LeftForeArm  12.4424 -25.2039 -4.70155
LeftHand  -0.126048 0.325177 2.87479
RightShoulder  0.0432121 -3.27082 13.2397
RightArm  -12.2818 25.5145 36.1573
RightForeArm  -2.27788 33.1376 7.4838
RightHand  -0.832138 5.38214 -9.24805
LeftUpLeg  -16.5528 9.00142 0.767395
LeftLeg  12.3316 -3.42588 -0.814303
LeftFoot  1.26768 0.220659 -2.04875
LeftToes  -5.63919e-011 3.32596e-011 1.92487e-011
480
root  43.8157 38.6872 15.6309 -169.876 76.1715 -162.523
RightUpLeg  13.1798 -9.58548 -1.39866
RightLeg  9.71911 -1.50905 1.87935
RightFoot  -13.8351 -0.048916 2.09416
RightToes  -8.73116e-010 0 -3.6325e-017
Spine  8.31068 -1.95937 12.5136
Spine1  4.59246 -0.258856 -4.55252
HEad  -23.2609 11.9827 12.6744
LeftShoulder1  0.151614 3.01192 -24.4453
LeftArm  -14.8907 -27.419 -33.2159
LeftForeArm  14.8322 -30.9796 -5.96066
LeftHand  -0.156394 0.10075 3.44054
RightShoulder  0.105657 -2.9668 13.4741
RightArm  -15.1823 26.7647 35.9137
RightForeArm  -1.52771 40.3084 9.62237
RightHand  -0.903925 5.42647 -9.98202
LeftUpLeg  -15.2819 6.47033 1.17879
LeftLeg  9.10031 -0.463529 -0.588643
LeftFoot  0.924954 -0.0114751 0.0609041
LeftToes  -5.63919e-011 3.32596e-011 1.92487e-011
481
root  45.0377 38.4596 15.5306 -171.851 75.4053 -163.863
RightUpLeg  15.7216 -9.96552 -1.89282
RightLeg  10.5819 -1.51963 2.05399
RightFoot  -15.9562 -0.0107685 2.40417
RightToes  -8.73116e-010 0 -3.6325e-017
Spine  8.3151 -1.76967 10.5801
Spine1  3.81343 -0.287546 -4.01376
HEad  -23.4489 13.7174 16.0238
LeftShoulder1  0.103364 3.16721 -24.3509
LeftArm  -19.3501 -28.323 -32.2361
LeftForeArm  15.2332 -38.3134 -7.91721
LeftHand  -0.218487 -0.211886 4.59997
RightShoulder  0.095277 -3.0125 13.343
RightArm  -17.1006 26.9278 36.5878
RightForeArm  0.651765 49.0143 12.9059
RightHand  -0.902709 4.83087 -10.5278
LeftUpLeg  -15.0918 6.80309 0.557443
LeftLeg  10.9204 -0.85453 -0.559527
LeftFoot  2.25799 -0.380893 2.94369
LeftToes  -5.63919e-011 3.32596e-011 1.92487e-011
